<svg xmlns="http://www.w3.org/2000/svg" width="114" height="114" fill="none" viewBox="0 0 114 114">
  <path fill="#C50000" d="M39.93 81.557 58.188 63.3l18.257 18.257 5.112-5.112L63.3 58.188 81.557 39.93l-5.112-5.112-18.257 18.257L39.93 34.817l-5.112 5.113 18.257 18.258-18.258 18.257 5.113 5.112Zm18.258 25.318c-6.655 0-12.943-1.278-18.867-3.834-5.924-2.556-11.097-6.046-15.52-10.468-4.421-4.422-7.91-9.595-10.467-15.52C10.778 71.13 9.5 64.842 9.5 58.189c0-6.736 1.278-13.065 3.834-18.989 2.556-5.923 6.046-11.076 10.468-15.458s9.595-7.85 15.52-10.407C45.244 10.778 51.532 9.5 58.186 9.5c6.736 0 13.065 1.278 18.989 3.834 5.923 2.556 11.076 6.025 15.458 10.407s7.851 9.535 10.407 15.458c2.556 5.924 3.834 12.253 3.834 18.989 0 6.653-1.278 12.942-3.834 18.866-2.556 5.924-6.025 11.096-10.407 15.519-4.382 4.422-9.535 7.912-15.458 10.468-5.924 2.556-12.253 3.834-18.989 3.834Z"/>
</svg>
