<svg xmlns="http://www.w3.org/2000/svg" width="114" height="114" fill="none" viewBox="0 0 114 114">
  <path fill="#0B9621" d="m51.006 80.34 34.447-34.446-5.6-5.477-28.847 28.847L36.4 54.658l-5.477 5.477L51.005 80.34Zm7.181 26.535c-6.654 0-12.942-1.278-18.866-3.834-5.924-2.556-11.097-6.046-15.52-10.468-4.421-4.422-7.91-9.595-10.467-15.52C10.778 71.13 9.5 64.842 9.5 58.189c0-6.736 1.278-13.065 3.834-18.989 2.556-5.923 6.046-11.076 10.468-15.458s9.595-7.85 15.52-10.407C45.244 10.778 51.532 9.5 58.186 9.5c6.736 0 13.065 1.278 18.989 3.834 5.923 2.556 11.076 6.025 15.458 10.407s7.851 9.535 10.407 15.458c2.556 5.924 3.834 12.253 3.834 18.989 0 6.653-1.278 12.942-3.834 18.866-2.556 5.924-6.025 11.096-10.407 15.519-4.382 4.422-9.535 7.912-15.458 10.468-5.924 2.556-12.253 3.834-18.989 3.834Z"/>
</svg>
